<svg viewBox="0 0 100 100" xmlns="http://www.w3.org/2000/svg" xmlns:xlink="http://www.w3.org/1999/xlink"><defs><circle id="a" cx="50" cy="50" r="50"/></defs><g fill="none" fill-rule="evenodd"><g><mask id="b" fill="#fff"><use xlink:href="#a"/></mask><g mask="url(#b)" fill="#99BDCD"><path d="M0 100h100V0H0z"/></g></g><path d="M64.89 41.9l-7.54-7.54a3.18 3.18 0 010-4.5l3.68-3.68a3.18 3.18 0 014.5 0l7.53 7.54a3.18 3.18 0 010 4.5l-3.68 3.67a3.18 3.18 0 01-4.5 0" fill="#C5232A"/><path fill="#E9D8BD" d="M33.37 53.84l-8.19 20.22 20.22-8.18-4.6-7.92z"/><path fill="#EEC85D" d="M60.88 34.35l-4-4.01-22.3 22.3 4 4z"/><path fill="#E2B954" d="M42.6 60.65l22.3-22.3-4.02-4-22.3 22.3z"/><path fill="#EEC85D" d="M64.9 38.36l-22.3 22.3 4 4 22.3-22.3zM33.82 56.01c.76.76 2.22.3 3.23 1.31.16.17.27.34.35.51l1.19-1.19-4.01-4-1.11 1.1s-.4 1.52.35 2.27"/><path d="M37.4 57.83c.4.91-.1 1.97.97 3.04s2.13.57 3.04.97l1.19-1.19-4.01-4-1.2 1.18z" fill="#E2B954"/><path d="M41.4 61.84c.18.08.35.19.52.35 1 1.01.55 2.47 1.3 3.23.77.76 2.28.35 2.28.35l1.1-1.1-4-4.02-1.2 1.2z" fill="#EEC85D"/><path fill="#5C5B5A" d="M25.18 74.06l7.16-2.9-4.26-4.25zM68.9 42.37L56.88 30.34l1.64-1.64 12.03 12.03z"/></g></svg>