<svg xmlns="http://www.w3.org/2000/svg" xmlns:xlink="http://www.w3.org/1999/xlink" enable-background="new 0 0 32 32" viewBox="0 0 100 100"><defs><filter id="a" width="100" height="100" x="0" y="0" filterUnits="userSpaceOnUse"><feColorMatrix values="1 0 0 0 0 0 1 0 0 0 0 0 1 0 0 0 0 0 1 0"/></filter></defs><mask id="b" width="100" height="100" x="0" y="0" maskUnits="userSpaceOnUse"><circle cx="50" cy="50" r="50" fill="#fff" filter="url(#a)"/></mask><g mask="url(#b)"><path fill="#9bd0b0" d="M0 100h100V0H0z"/></g><g transform="translate(25 13)"><defs><path id="c" d="M46.8 5.4H3.2A3.3 3.3 0 000 8.7v55.5l.1 1c.2.5.4 1 .8 1.3l.2.2c.5.4 1.1.7 1.7.7h43.8c1.8 0 3.2-1.5 3.2-3.3V8.7a3 3 0 00-3-3.3"/></defs><clipPath id="d"><use overflow="visible" xlink:href="#c"/></clipPath><path fill="#515658" d="M-4.6.8h59.3v71.3H-4.6z" clip-path="url(#d)"/></g><g transform="translate(25 13)"><defs><path id="e" d="M4.6 19.1v41.1c0 1.5 1.2 2.7 2.6 2.7h34.6c1.4 0 2.6-1.2 2.6-2.7V12.7c0-1.5-1.2-2.7-2.6-2.7H14.2l-9.6 9.1z"/></defs><clipPath id="f"><use overflow="visible" xlink:href="#e"/></clipPath><g clip-path="url(#f)"><defs><path id="g" d="M-1.9 1.7H50v67.6H-1.9z"/></defs><clipPath id="h"><use overflow="visible" xlink:href="#g"/></clipPath><g clip-path="url(#h)"><defs><path id="i" d="M3.7 10.1h40.7v52.8H3.7z"/></defs><clipPath id="j"><use overflow="visible" xlink:href="#i"/></clipPath><path fill="#fff" d="M-1.3 2.5h50.9v66.7H-1.3z" clip-path="url(#j)"/></g></g></g><g transform="translate(25 13)"><defs><path id="k" d="M14.2 10.1v6.3c0 1.5-1.2 2.7-2.8 2.7H4.6l9.6-9z"/></defs><clipPath id="l"><use overflow="visible" xlink:href="#k"/></clipPath><path fill="#c9c9c9" d="M0 5.4h18.8v18.3H0z" clip-path="url(#l)"/></g><g transform="translate(25 13)"><defs><path id="m" d="M18.7 29h17v1.5h-17z"/></defs><clipPath id="n"><use overflow="visible" xlink:href="#m"/></clipPath><g clip-path="url(#n)"><defs><path id="o" d="M6.1 17.6H43v37.7H6.1z"/></defs><clipPath id="p"><use overflow="visible" xlink:href="#o"/></clipPath><path fill="#a59d96" d="M14.1 24.4h26.3v10.8H14.1z" clip-path="url(#p)"/></g></g><g transform="translate(25 13)"><defs><path id="q" d="M18.7 34.3h17v1.5h-17z"/></defs><clipPath id="r"><use overflow="visible" xlink:href="#q"/></clipPath><g clip-path="url(#r)"><defs><path id="s" d="M6.1 17.6H43v37.7H6.1z"/></defs><clipPath id="t"><use overflow="visible" xlink:href="#s"/></clipPath><path fill="#a59d96" d="M14.1 29.7h26.3v10.8H14.1z" clip-path="url(#t)"/></g></g><g transform="translate(25 13)"><defs><path id="u" d="M18.7 38.9h17v1.5h-17z"/></defs><clipPath id="v"><use overflow="visible" xlink:href="#u"/></clipPath><g clip-path="url(#v)"><defs><path id="w" d="M6.1 17.6H43v37.7H6.1z"/></defs><clipPath id="x"><use overflow="visible" xlink:href="#w"/></clipPath><path fill="#a59d96" d="M14.1 34.2h26.3V45H14.1z" clip-path="url(#x)"/></g></g><g transform="translate(25 13)"><defs><path id="y" d="M18.7 44.2h17v1.5h-17z"/></defs><clipPath id="z"><use overflow="visible" xlink:href="#y"/></clipPath><g clip-path="url(#z)"><defs><path id="A" d="M6.1 17.6H43v37.7H6.1z"/></defs><clipPath id="B"><use overflow="visible" xlink:href="#A"/></clipPath><path fill="#a59d96" d="M14.1 39.6h26.3v10.8H14.1z" clip-path="url(#B)"/></g></g><g transform="translate(25 13)"><defs><path id="C" d="M14.3 30.5h2.1v-2.1h-2.1v2.1zm2.9-3h-3.7v3.7h3.7v-3.7z"/></defs><clipPath id="D"><use overflow="visible" xlink:href="#C"/></clipPath><g clip-path="url(#D)"><defs><path id="E" d="M6.1 17.6H43v37.7H6.1z"/></defs><clipPath id="F"><use overflow="visible" xlink:href="#E"/></clipPath><path fill="#a59d96" d="M8.9 22.9h13V36h-13z" clip-path="url(#F)"/></g></g><g transform="translate(25 13)"><defs><path id="G" d="M14.3 35.6h2.1v-2.1h-2.1v2.1zm2.9-2.9h-3.7v3.7h3.7v-3.7z"/></defs><clipPath id="H"><use overflow="visible" xlink:href="#G"/></clipPath><g clip-path="url(#H)"><defs><path id="I" d="M6.1 17.6H43v37.7H6.1z"/></defs><clipPath id="J"><use overflow="visible" xlink:href="#I"/></clipPath><path fill="#a59d96" d="M8.9 28h13v13.1h-13z" clip-path="url(#J)"/></g></g><g transform="translate(25 13)"><defs><path id="K" d="M14.3 40.8h2.1v-2.1h-2.1v2.1zm2.9-2.9h-3.7v3.7h3.7v-3.7z"/></defs><clipPath id="L"><use overflow="visible" xlink:href="#K"/></clipPath><g clip-path="url(#L)"><defs><path id="M" d="M6.1 17.6H43v37.7H6.1z"/></defs><clipPath id="N"><use overflow="visible" xlink:href="#M"/></clipPath><path fill="#a59d96" d="M8.9 33.2h13v13.1h-13z" clip-path="url(#N)"/></g></g><g transform="translate(25 13)"><defs><path id="O" d="M14.3 46h2.1v-2.1h-2.1V46zm2.9-2.9h-3.7v3.7h3.7v-3.7z"/></defs><clipPath id="P"><use overflow="visible" xlink:href="#O"/></clipPath><g clip-path="url(#P)"><defs><path id="Q" d="M6.1 17.6H43v37.7H6.1z"/></defs><clipPath id="R"><use overflow="visible" xlink:href="#Q"/></clipPath><path fill="#a59d96" d="M8.9 38.4h13v13.1h-13z" clip-path="url(#R)"/></g></g><g transform="translate(25 13)"><defs><path id="S" d="M14.7 28.8l1.6-2.8.9.9-2.5 4.4-1.9-3 .8-1z"/></defs><clipPath id="T"><use overflow="visible" xlink:href="#S"/></clipPath><g clip-path="url(#T)"><defs><path id="U" d="M6.1 17.6H43v37.7H6.1z"/></defs><clipPath id="V"><use overflow="visible" xlink:href="#U"/></clipPath><path fill="#2f3237" d="M8.1 21.3h13.7v14.6H8.1z" clip-path="url(#V)"/></g></g><g transform="translate(25 13)"><defs><path id="W" d="M16.1 30.5l1.1.9-2.5 4.4-1.9-3.1 1-.9.9 1.3z"/></defs><clipPath id="X"><use overflow="visible" xlink:href="#W"/></clipPath><g clip-path="url(#X)"><defs><path id="Y" d="M6.1 17.6H43v37.7H6.1z"/></defs><clipPath id="Z"><use overflow="visible" xlink:href="#Y"/></clipPath><path fill="#2f3237" d="M8.1 25.9h13.7v14.6H8.1z" clip-path="url(#Z)"/></g></g><g transform="translate(25 13)"><defs><path id="aa" d="M31.8 3.2H28v-.7c0-1.4-1.1-2.6-2.5-2.6S23 1.1 23 2.5v.7h-3.8a3.5 3.5 0 00-3.4 3.5V11h19.4V6.8c0-2-1.5-3.6-3.4-3.6m-6.3 4.4c-.6 0-1-.5-1-1.1 0-.6.5-1.1 1-1.1.6 0 1 .5 1 1.1 0 .6-.5 1.1-1 1.1"/></defs><clipPath id="ab"><use overflow="visible" xlink:href="#aa"/></clipPath><path fill="#2f3237" d="M11.1-4.7h28.7v20.4H11.1z" clip-path="url(#ab)"/></g></svg>