<svg xmlns="http://www.w3.org/2000/svg" xmlns:xlink="http://www.w3.org/1999/xlink" enable-background="new 0 0 100 100" viewBox="0 0 100 100"><defs><filter id="prefix__a" width="100" height="100" x="0" y="0" filterUnits="userSpaceOnUse"><feColorMatrix values="1 0 0 0 0 0 1 0 0 0 0 0 1 0 0 0 0 0 1 0"/></filter></defs><mask id="prefix__b" width="100" height="100" x="0" y="0" maskUnits="userSpaceOnUse"><circle cx="50" cy="50" r="50" fill="#fff" filter="url(#prefix__a)"/></mask><g mask="url(#prefix__b)"><path fill="#99BDCD" d="M0 100h100V0H0z"/></g><g transform="translate(25 13)"><defs><path id="prefix__c" d="M46.8 5.4H3.2C1.5 5.4 0 6.9 0 8.7v55.5c0 .3.1.7.1 1 .2.5.4 1 .8 1.3l.2.2c.5.4 1.1.7 1.7.7h43.8c1.8 0 3.2-1.5 3.2-3.3V8.7c.2-1.8-1.3-3.3-3-3.3"/></defs><clipPath id="prefix__d"><use overflow="visible" xlink:href="#prefix__c"/></clipPath><path fill="#515658" d="M-4.6.8h59.3v71.3H-4.6z" clip-path="url(#prefix__d)"/></g><g transform="translate(25 13)"><defs><path id="prefix__e" d="M4.6 19.1v41.1c0 1.5 1.2 2.7 2.6 2.7h34.6c1.4 0 2.6-1.2 2.6-2.7V12.7c0-1.5-1.2-2.7-2.6-2.7H14.2l-9.6 9.1z"/></defs><clipPath id="prefix__f"><use overflow="visible" xlink:href="#prefix__e"/></clipPath><g clip-path="url(#prefix__f)"><defs><path id="prefix__g" d="M-1.9 1.7H50v67.6H-1.9z"/></defs><clipPath id="prefix__h"><use overflow="visible" xlink:href="#prefix__g"/></clipPath><g clip-path="url(#prefix__h)"><defs><path id="prefix__i" d="M3.7 10.1h40.7v52.8H3.7z"/></defs><clipPath id="prefix__j"><use overflow="visible" xlink:href="#prefix__i"/></clipPath><path fill="#fff" d="M-1.3 2.5h50.9v66.7H-1.3z" clip-path="url(#prefix__j)"/></g></g></g><g transform="translate(25 13)"><defs><path id="prefix__k" d="M14.2 10.1v6.3c0 1.5-1.2 2.7-2.8 2.7H4.6l9.6-9z"/></defs><clipPath id="prefix__l"><use overflow="visible" xlink:href="#prefix__k"/></clipPath><path fill="#c9c9c9" d="M0 5.4h18.8v18.3H0z" clip-path="url(#prefix__l)"/></g><g transform="translate(25 13)"><defs><path id="prefix__m" d="M18.7 29h17v1.5h-17z"/></defs><clipPath id="prefix__n"><use overflow="visible" xlink:href="#prefix__m"/></clipPath><g clip-path="url(#prefix__n)"><defs><path id="prefix__o" d="M6.1 17.6H43v37.7H6.1z"/></defs><clipPath id="prefix__p"><use overflow="visible" xlink:href="#prefix__o"/></clipPath><path fill="#a59d96" d="M14.1 24.4h26.3v10.8H14.1z" clip-path="url(#prefix__p)"/></g></g><g transform="translate(25 13)"><defs><path id="prefix__q" d="M18.7 34.3h17v1.5h-17z"/></defs><clipPath id="prefix__r"><use overflow="visible" xlink:href="#prefix__q"/></clipPath><g clip-path="url(#prefix__r)"><defs><path id="prefix__s" d="M6.1 17.6H43v37.7H6.1z"/></defs><clipPath id="prefix__t"><use overflow="visible" xlink:href="#prefix__s"/></clipPath><path fill="#a59d96" d="M14.1 29.7h26.3v10.8H14.1z" clip-path="url(#prefix__t)"/></g></g><g transform="translate(25 13)"><defs><path id="prefix__u" d="M18.7 38.9h17v1.5h-17z"/></defs><clipPath id="prefix__v"><use overflow="visible" xlink:href="#prefix__u"/></clipPath><g clip-path="url(#prefix__v)"><defs><path id="prefix__w" d="M6.1 17.6H43v37.7H6.1z"/></defs><clipPath id="prefix__x"><use overflow="visible" xlink:href="#prefix__w"/></clipPath><path fill="#a59d96" d="M14.1 34.2h26.3V45H14.1z" clip-path="url(#prefix__x)"/></g></g><g transform="translate(25 13)"><defs><path id="prefix__y" d="M18.7 44.2h17v1.5h-17z"/></defs><clipPath id="prefix__z"><use overflow="visible" xlink:href="#prefix__y"/></clipPath><g clip-path="url(#prefix__z)"><defs><path id="prefix__A" d="M6.1 17.6H43v37.7H6.1z"/></defs><clipPath id="prefix__B"><use overflow="visible" xlink:href="#prefix__A"/></clipPath><path fill="#a59d96" d="M14.1 39.6h26.3v10.8H14.1z" clip-path="url(#prefix__B)"/></g></g><g transform="translate(25 13)"><defs><path id="prefix__C" d="M14.3 30.5h2.1v-2.1h-2.1v2.1zm2.9-3h-3.7v3.7h3.7v-3.7z"/></defs><clipPath id="prefix__D"><use overflow="visible" xlink:href="#prefix__C"/></clipPath><g clip-path="url(#prefix__D)"><defs><path id="prefix__E" d="M6.1 17.6H43v37.7H6.1z"/></defs><clipPath id="prefix__F"><use overflow="visible" xlink:href="#prefix__E"/></clipPath><path fill="#a59d96" d="M8.9 22.9h13V36h-13z" clip-path="url(#prefix__F)"/></g></g><g transform="translate(25 13)"><defs><path id="prefix__G" d="M14.3 35.6h2.1v-2.1h-2.1v2.1zm2.9-2.9h-3.7v3.7h3.7v-3.7z"/></defs><clipPath id="prefix__H"><use overflow="visible" xlink:href="#prefix__G"/></clipPath><g clip-path="url(#prefix__H)"><defs><path id="prefix__I" d="M6.1 17.6H43v37.7H6.1z"/></defs><clipPath id="prefix__J"><use overflow="visible" xlink:href="#prefix__I"/></clipPath><path fill="#a59d96" d="M8.9 28h13v13.1h-13z" clip-path="url(#prefix__J)"/></g></g><g transform="translate(25 13)"><defs><path id="prefix__K" d="M14.3 40.8h2.1v-2.1h-2.1v2.1zm2.9-2.9h-3.7v3.7h3.7v-3.7z"/></defs><clipPath id="prefix__L"><use overflow="visible" xlink:href="#prefix__K"/></clipPath><g clip-path="url(#prefix__L)"><defs><path id="prefix__M" d="M6.1 17.6H43v37.7H6.1z"/></defs><clipPath id="prefix__N"><use overflow="visible" xlink:href="#prefix__M"/></clipPath><path fill="#a59d96" d="M8.9 33.2h13v13.1h-13z" clip-path="url(#prefix__N)"/></g></g><g transform="translate(25 13)"><defs><path id="prefix__O" d="M14.3 46h2.1v-2.1h-2.1V46zm2.9-2.9h-3.7v3.7h3.7v-3.7z"/></defs><clipPath id="prefix__P"><use overflow="visible" xlink:href="#prefix__O"/></clipPath><g clip-path="url(#prefix__P)"><defs><path id="prefix__Q" d="M6.1 17.6H43v37.7H6.1z"/></defs><clipPath id="prefix__R"><use overflow="visible" xlink:href="#prefix__Q"/></clipPath><path fill="#a59d96" d="M8.9 38.4h13v13.1h-13z" clip-path="url(#prefix__R)"/></g></g><g transform="translate(25 13)"><defs><path id="prefix__S" d="M14.7 28.8l1.6-2.8.9.9-2.5 4.4-1.9-3 .8-1z"/></defs><clipPath id="prefix__T"><use overflow="visible" xlink:href="#prefix__S"/></clipPath><g clip-path="url(#prefix__T)"><defs><path id="prefix__U" d="M6.1 17.6H43v37.7H6.1z"/></defs><clipPath id="prefix__V"><use overflow="visible" xlink:href="#prefix__U"/></clipPath><path fill="#2f3237" d="M8.1 21.3h13.7v14.6H8.1z" clip-path="url(#prefix__V)"/></g></g><g transform="translate(25 13)"><defs><path id="prefix__W" d="M16.1 30.5l1.1.9-2.5 4.4-1.9-3.1 1-.9.9 1.3z"/></defs><clipPath id="prefix__X"><use overflow="visible" xlink:href="#prefix__W"/></clipPath><g clip-path="url(#prefix__X)"><defs><path id="prefix__Y" d="M6.1 17.6H43v37.7H6.1z"/></defs><clipPath id="prefix__Z"><use overflow="visible" xlink:href="#prefix__Y"/></clipPath><path fill="#2f3237" d="M8.1 25.9h13.7v14.6H8.1z" clip-path="url(#prefix__Z)"/></g></g><g transform="translate(25 13)"><defs><path id="prefix__aa" d="M31.8 3.2H28v-.7c0-1.4-1.1-2.6-2.5-2.6S23 1.1 23 2.5v.7h-3.8c-1.9 0-3.4 1.6-3.4 3.5V11h19.4V6.8c0-2-1.5-3.6-3.4-3.6m-6.3 4.4c-.6 0-1-.5-1-1.1 0-.6.5-1.1 1-1.1.6 0 1 .5 1 1.1 0 .6-.5 1.1-1 1.1"/></defs><clipPath id="prefix__ab"><use overflow="visible" xlink:href="#prefix__aa"/></clipPath><path fill="#2f3237" d="M11.1-4.7h28.7v20.4H11.1z" clip-path="url(#prefix__ab)"/></g></svg>