<svg viewBox="0 0 100 100" xmlns="http://www.w3.org/2000/svg" xmlns:xlink="http://www.w3.org/1999/xlink"><defs><path d="M.109 27.91A6.414 6.414 0 010 26.727C0 11.966 10.944 0 24.448 0c13.5 0 24.446 11.966 24.446 26.726 0 .098-.002.196-.006.292h.063s.028 28.448-24.51 28.448C-.095 55.466 0 65.257 0 65.257V27.912l.109-.001z" id="kvinne-svg-1"/><path d="M37.248 3.041C43.02 5.861 52 13.502 52 20.587V44H0V20.587c0-6.836 8.215-14.189 13.923-17.23-.29.175-.442.28-.442.28.984 1.618 3.627 8.798 11.919 8.798 8.293 0 12.156-7.708 12.156-9.215l-.308-.179z" id="e"/></defs><g fill="none" fill-rule="evenodd"><g mask="url(#b)"><path fill="#99BDCD" d="M-8 100h126V0H-8z"/></g><g mask="url(#b)"><g transform="translate(25.794 14.188)"><mask id="d" fill="#fff"><use xlink:href="#kvinne-svg-1"/></mask><g mask="url(#d)" fill="#F6B873"><path d="M-8.735-.963h67v76h-67z"/></g></g><path d="M37.325 66.078c.986 1.58 3.754 29.32 12.064 29.32 8.311 0 12.063-28.257 12.063-29.728-12.724-7.302-24.127.408-24.127.408z" fill="#E7E5E2"/><g transform="translate(23.814 62.527)"><mask id="f" fill="#fff"><use xlink:href="#e"/></mask><use fill="#D8A25D" xlink:href="#e"/><g mask="url(#f)"><path fill="#0C5EA8" d="M-31.778 72.087h121v-96h-121z"/></g></g><path d="M30.126 40.794s-.102.576-.232.481a1.564 1.564 0 00-.586-.119c-.895 0-1.623.752-1.624 1.682l-.01 6.436c-.001.93.723 1.684 1.62 1.686.358 0 .687-.124.956-.329 2.168 10.363 9.893 17.681 19.104 17.697 9.211.015 16.96-7.279 19.158-17.634.268.205.597.33.956.332.896 0 1.624-.752 1.625-1.681l.01-6.437c0-.93-.723-1.684-1.62-1.686-.206 0-.403.044-.584.117-20.775 2.467-28.021-11.682-28.634-11.683 0 0-8.688 8.148-10.14 11.138z" fill="#E7E5E2"/><g><path d="M42.516 46.751c-1.404.104-1.797-1.923-1.374-3.246.08-.25.545-1.393 1.368-1.393.822 0 1.185.625 1.235.732.605 1.29.308 3.793-1.229 3.907M58.19 46.751c1.405.104 1.798-1.923 1.375-3.246-.08-.25-.544-1.393-1.367-1.393-.822 0-1.185.625-1.236.732-.605 1.29-.308 3.793 1.229 3.907" fill="#635E59"/><path d="M50.8 49.08c.825-.123 1.39-.045 1.591.197.763.918.519 1.888-.79 2.685-.687.418-1.634.566-2.135.349a.49.49 0 00-.64.242c-.109.24.002.52.247.626.828.36 2.102.16 3.041-.41 1.778-1.083 2.185-2.702 1.03-4.092-.489-.587-1.354-.707-2.493-.535a.477.477 0 00-.405.542c.04.259.288.437.553.397z" fill="#D1BFA3" fill-rule="nonzero"/><path d="M56.331 56.007a4.3 4.3 0 01-.305.534 6.769 6.769 0 01-1.033 1.23c-1.241 1.167-2.857 1.842-4.913 1.78-2.005-.06-3.613-.724-4.874-1.796a7.139 7.139 0 01-1.15-1.234 4.308 4.308 0 01-.343-.534.49.49 0 00-.65-.216.47.47 0 00-.22.636c.07.142.21.373.421.665.349.478.782.955 1.305 1.4 1.424 1.21 3.243 1.962 5.481 2.03 2.33.07 4.194-.71 5.615-2.046a7.717 7.717 0 001.179-1.404 5.16 5.16 0 00.377-.665.471.471 0 00-.251-.625.49.49 0 00-.639.245z" fill="#D19E9C" fill-rule="nonzero"/></g></g></g></svg>