<svg viewBox="0 0 100 100" xmlns="http://www.w3.org/2000/svg" xmlns:xlink="http://www.w3.org/1999/xlink"><defs><path d="M0 10.8v51C0 63.4 1.5 65 3.2 65h43.6c1.7 0 3.2-1.5 3.2-3.3V3.3C50 1.5 48.5 0 46.8 0H11.3L0 10.8z" id="liste-svg-3"/></defs><g fill="none" fill-rule="evenodd"><g><g mask="url(#b)" fill="#99BDCD"><path d="M0 100h100V0H0z"/></g></g><g transform="translate(25 18)"><mask id="liste-svg-2" fill="#fff"><use xlink:href="#liste-svg-3"/></mask><g mask="url(#liste-svg-2)" fill="#E4E4DB"><path d="M-7.4-9.3h64v83h-64z"/></g></g><path d="M36.4 18v7.5c0 1.9-1.5 3.3-3.3 3.3H25L36.4 18z" fill="#C9C9C9"/><g fill="#8F9395"><path d="M34.2 42.9h31.1v-2.7h-31zM34.2 48.4h31.1v-2.7h-31zM34.2 54.8h31v-2.7h-31zM34.2 60.3h31v-2.7h-31zM34.2 66.8h31V64h-31zM34.2 36.4h31.1v-2.7h-31z"/></g></g></svg>